<?xml version="1.0" encoding="UTF-8"?>
<svg xmlns="http://www.w3.org/2000/svg" xmlns:xlink="http://www.w3.org/1999/xlink" width="5000" height="5000" viewBox="0 0 5000 5000">
<defs>
<clipPath id="clip-0">
<path clip-rule="nonzero" d="M 1630 3844 L 4403 3844 L 4403 4874 L 1630 4874 Z M 1630 3844 "/>
</clipPath>
<clipPath id="clip-1">
<path clip-rule="evenodd" d="M 4605.398438 877.089844 C 4385.109375 47.628906 726.636719 -4.308594 400.070312 693 C -96.398438 1753.089844 460.03125 3503.28125 325.769531 4405.675781 C 257.542969 4864.238281 1304.390625 4974.820312 2243.460938 4785.492188 C 3213.449219 4589.925781 3895.28125 4696.160156 4131.648438 4725.300781 C 4936.039062 4824.472656 5018.300781 3322.839844 4684.871094 2371.378906 C 4523.390625 1910.578125 4650.78125 1047.929688 4605.398438 877.089844 Z M 4605.398438 877.089844 "/>
</clipPath>
<clipPath id="clip-2">
<path clip-rule="nonzero" d="M 3543 1532 L 4454 1532 L 4454 2689 L 3543 2689 Z M 3543 1532 "/>
</clipPath>
<clipPath id="clip-3">
<path clip-rule="evenodd" d="M 4605.398438 877.089844 C 4385.109375 47.628906 726.636719 -4.308594 400.070312 693 C -96.398438 1753.089844 460.03125 3503.28125 325.769531 4405.675781 C 257.542969 4864.238281 1304.390625 4974.820312 2243.460938 4785.492188 C 3213.449219 4589.925781 3895.28125 4696.160156 4131.648438 4725.300781 C 4936.039062 4824.472656 5018.300781 3322.839844 4684.871094 2371.378906 C 4523.390625 1910.578125 4650.78125 1047.929688 4605.398438 877.089844 Z M 4605.398438 877.089844 "/>
</clipPath>
<clipPath id="clip-4">
<path clip-rule="nonzero" d="M 2046 3957 L 2465 3957 L 2465 4259 L 2046 4259 Z M 2046 3957 "/>
</clipPath>
<clipPath id="clip-5">
<path clip-rule="evenodd" d="M 4605.398438 877.089844 C 4385.109375 47.628906 726.636719 -4.308594 400.070312 693 C -96.398438 1753.089844 460.03125 3503.28125 325.769531 4405.675781 C 257.542969 4864.238281 1304.390625 4974.820312 2243.460938 4785.492188 C 3213.449219 4589.925781 3895.28125 4696.160156 4131.648438 4725.300781 C 4936.039062 4824.472656 5018.300781 3322.839844 4684.871094 2371.378906 C 4523.390625 1910.578125 4650.78125 1047.929688 4605.398438 877.089844 Z M 4605.398438 877.089844 "/>
</clipPath>
<clipPath id="clip-6">
<path clip-rule="nonzero" d="M 2352 3204 L 3232 3204 L 3232 4079 L 2352 4079 Z M 2352 3204 "/>
</clipPath>
<clipPath id="clip-7">
<path clip-rule="evenodd" d="M 4605.398438 877.089844 C 4385.109375 47.628906 726.636719 -4.308594 400.070312 693 C -96.398438 1753.089844 460.03125 3503.28125 325.769531 4405.675781 C 257.542969 4864.238281 1304.390625 4974.820312 2243.460938 4785.492188 C 3213.449219 4589.925781 3895.28125 4696.160156 4131.648438 4725.300781 C 4936.039062 4824.472656 5018.300781 3322.839844 4684.871094 2371.378906 C 4523.390625 1910.578125 4650.78125 1047.929688 4605.398438 877.089844 Z M 4605.398438 877.089844 "/>
</clipPath>
<clipPath id="clip-8">
<path clip-rule="nonzero" d="M 2450 4025 L 2704 4025 L 2704 4457 L 2450 4457 Z M 2450 4025 "/>
</clipPath>
<clipPath id="clip-9">
<path clip-rule="evenodd" d="M 4605.398438 877.089844 C 4385.109375 47.628906 726.636719 -4.308594 400.070312 693 C -96.398438 1753.089844 460.03125 3503.28125 325.769531 4405.675781 C 257.542969 4864.238281 1304.390625 4974.820312 2243.460938 4785.492188 C 3213.449219 4589.925781 3895.28125 4696.160156 4131.648438 4725.300781 C 4936.039062 4824.472656 5018.300781 3322.839844 4684.871094 2371.378906 C 4523.390625 1910.578125 4650.78125 1047.929688 4605.398438 877.089844 Z M 4605.398438 877.089844 "/>
</clipPath>
<clipPath id="clip-10">
<path clip-rule="nonzero" d="M 2486 3015 L 2921 3015 L 2921 4109 L 2486 4109 Z M 2486 3015 "/>
</clipPath>
<clipPath id="clip-11">
<path clip-rule="evenodd" d="M 4605.398438 877.089844 C 4385.109375 47.628906 726.636719 -4.308594 400.070312 693 C -96.398438 1753.089844 460.03125 3503.28125 325.769531 4405.675781 C 257.542969 4864.238281 1304.390625 4974.820312 2243.460938 4785.492188 C 3213.449219 4589.925781 3895.28125 4696.160156 4131.648438 4725.300781 C 4936.039062 4824.472656 5018.300781 3322.839844 4684.871094 2371.378906 C 4523.390625 1910.578125 4650.78125 1047.929688 4605.398438 877.089844 Z M 4605.398438 877.089844 "/>
</clipPath>
<clipPath id="clip-12">
<path clip-rule="nonzero" d="M 2885 1447 L 4071 1447 L 4071 2604 L 2885 2604 Z M 2885 1447 "/>
</clipPath>
<clipPath id="clip-13">
<path clip-rule="evenodd" d="M 4605.398438 877.089844 C 4385.109375 47.628906 726.636719 -4.308594 400.070312 693 C -96.398438 1753.089844 460.03125 3503.28125 325.769531 4405.675781 C 257.542969 4864.238281 1304.390625 4974.820312 2243.460938 4785.492188 C 3213.449219 4589.925781 3895.28125 4696.160156 4131.648438 4725.300781 C 4936.039062 4824.472656 5018.300781 3322.839844 4684.871094 2371.378906 C 4523.390625 1910.578125 4650.78125 1047.929688 4605.398438 877.089844 Z M 4605.398438 877.089844 "/>
</clipPath>
<clipPath id="clip-14">
<path clip-rule="nonzero" d="M 3354 1157 L 3795 1157 L 3795 1633 L 3354 1633 Z M 3354 1157 "/>
</clipPath>
<clipPath id="clip-15">
<path clip-rule="evenodd" d="M 4605.398438 877.089844 C 4385.109375 47.628906 726.636719 -4.308594 400.070312 693 C -96.398438 1753.089844 460.03125 3503.28125 325.769531 4405.675781 C 257.542969 4864.238281 1304.390625 4974.820312 2243.460938 4785.492188 C 3213.449219 4589.925781 3895.28125 4696.160156 4131.648438 4725.300781 C 4936.039062 4824.472656 5018.300781 3322.839844 4684.871094 2371.378906 C 4523.390625 1910.578125 4650.78125 1047.929688 4605.398438 877.089844 Z M 4605.398438 877.089844 "/>
</clipPath>
<clipPath id="clip-16">
<path clip-rule="nonzero" d="M 3354 1157 L 3521 1157 L 3521 1443 L 3354 1443 Z M 3354 1157 "/>
</clipPath>
<clipPath id="clip-17">
<path clip-rule="evenodd" d="M 3593.28125 1157.230469 L 3418.820312 1157.230469 C 3418.820312 1157.230469 3429.488281 1388.550781 3418.820312 1444.851562 C 3413.550781 1472.628906 3354.769531 1495.011719 3354.769531 1495.011719 C 3354.769531 1495.011719 3395.539062 1627.609375 3448.179688 1632.28125 C 3521.429688 1638.769531 3794.269531 1534.011719 3794.269531 1534.011719 C 3794.269531 1534.011719 3675.828125 1435.429688 3644.679688 1377.03125 C 3611.179688 1314.230469 3593.28125 1157.230469 3593.28125 1157.230469 Z M 3593.28125 1157.230469 "/>
</clipPath>
<clipPath id="clip-18">
<path clip-rule="evenodd" d="M 4605.398438 877.089844 C 4385.109375 47.628906 726.636719 -4.308594 400.070312 693 C -96.398438 1753.089844 460.03125 3503.28125 325.769531 4405.675781 C 257.542969 4864.238281 1304.390625 4974.820312 2243.460938 4785.492188 C 3213.449219 4589.925781 3895.28125 4696.160156 4131.648438 4725.300781 C 4936.039062 4824.472656 5018.300781 3322.839844 4684.871094 2371.378906 C 4523.390625 1910.578125 4650.78125 1047.929688 4605.398438 877.089844 Z M 4605.398438 877.089844 "/>
</clipPath>
<clipPath id="clip-19">
<path clip-rule="nonzero" d="M 3244 1004 L 3594 1004 L 3594 1412 L 3244 1412 Z M 3244 1004 "/>
</clipPath>
<clipPath id="clip-20">
<path clip-rule="evenodd" d="M 4605.398438 877.089844 C 4385.109375 47.628906 726.636719 -4.308594 400.070312 693 C -96.398438 1753.089844 460.03125 3503.28125 325.769531 4405.675781 C 257.542969 4864.238281 1304.390625 4974.820312 2243.460938 4785.492188 C 3213.449219 4589.925781 3895.28125 4696.160156 4131.648438 4725.300781 C 4936.039062 4824.472656 5018.300781 3322.839844 4684.871094 2371.378906 C 4523.390625 1910.578125 4650.78125 1047.929688 4605.398438 877.089844 Z M 4605.398438 877.089844 "/>
</clipPath>
<clipPath id="clip-21">
<path clip-rule="nonzero" d="M 3161 830 L 3645 830 L 3645 1238 L 3161 1238 Z M 3161 830 "/>
</clipPath>
<clipPath id="clip-22">
<path clip-rule="evenodd" d="M 4605.398438 877.089844 C 4385.109375 47.628906 726.636719 -4.308594 400.070312 693 C -96.398438 1753.089844 460.03125 3503.28125 325.769531 4405.675781 C 257.542969 4864.238281 1304.390625 4974.820312 2243.460938 4785.492188 C 3213.449219 4589.925781 3895.28125 4696.160156 4131.648438 4725.300781 C 4936.039062 4824.472656 5018.300781 3322.839844 4684.871094 2371.378906 C 4523.390625 1910.578125 4650.78125 1047.929688 4605.398438 877.089844 Z M 4605.398438 877.089844 "/>
</clipPath>
<clipPath id="clip-23">
<path clip-rule="nonzero" d="M 3091 3259 L 3263 3259 L 3263 3884 L 3091 3884 Z M 3091 3259 "/>
</clipPath>
<clipPath id="clip-24">
<path clip-rule="evenodd" d="M 4605.398438 877.089844 C 4385.109375 47.628906 726.636719 -4.308594 400.070312 693 C -96.398438 1753.089844 460.03125 3503.28125 325.769531 4405.675781 C 257.542969 4864.238281 1304.390625 4974.820312 2243.460938 4785.492188 C 3213.449219 4589.925781 3895.28125 4696.160156 4131.648438 4725.300781 C 4936.039062 4824.472656 5018.300781 3322.839844 4684.871094 2371.378906 C 4523.390625 1910.578125 4650.78125 1047.929688 4605.398438 877.089844 Z M 4605.398438 877.089844 "/>
</clipPath>
<clipPath id="clip-25">
<path clip-rule="nonzero" d="M 3750 3190 L 3806 3190 L 3806 4030 L 3750 4030 Z M 3750 3190 "/>
</clipPath>
<clipPath id="clip-26">
<path clip-rule="evenodd" d="M 4605.398438 877.089844 C 4385.109375 47.628906 726.636719 -4.308594 400.070312 693 C -96.398438 1753.089844 460.03125 3503.28125 325.769531 4405.675781 C 257.542969 4864.238281 1304.390625 4974.820312 2243.460938 4785.492188 C 3213.449219 4589.925781 3895.28125 4696.160156 4131.648438 4725.300781 C 4936.039062 4824.472656 5018.300781 3322.839844 4684.871094 2371.378906 C 4523.390625 1910.578125 4650.78125 1047.929688 4605.398438 877.089844 Z M 4605.398438 877.089844 "/>
</clipPath>
<clipPath id="clip-27">
<path clip-rule="nonzero" d="M 4149 2947 L 4409 2947 L 4409 3932 L 4149 3932 Z M 4149 2947 "/>
</clipPath>
<clipPath id="clip-28">
<path clip-rule="evenodd" d="M 4605.398438 877.089844 C 4385.109375 47.628906 726.636719 -4.308594 400.070312 693 C -96.398438 1753.089844 460.03125 3503.28125 325.769531 4405.675781 C 257.542969 4864.238281 1304.390625 4974.820312 2243.460938 4785.492188 C 3213.449219 4589.925781 3895.28125 4696.160156 4131.648438 4725.300781 C 4936.039062 4824.472656 5018.300781 3322.839844 4684.871094 2371.378906 C 4523.390625 1910.578125 4650.78125 1047.929688 4605.398438 877.089844 Z M 4605.398438 877.089844 "/>
</clipPath>
<clipPath id="clip-29">
<path clip-rule="nonzero" d="M 3337 3363 L 3755 3363 L 3755 4874 L 3337 4874 Z M 3337 3363 "/>
</clipPath>
<clipPath id="clip-30">
<path clip-rule="evenodd" d="M 4605.398438 877.089844 C 4385.109375 47.628906 726.636719 -4.308594 400.070312 693 C -96.398438 1753.089844 460.03125 3503.28125 325.769531 4405.675781 C 257.542969 4864.238281 1304.390625 4974.820312 2243.460938 4785.492188 C 3213.449219 4589.925781 3895.28125 4696.160156 4131.648438 4725.300781 C 4936.039062 4824.472656 5018.300781 3322.839844 4684.871094 2371.378906 C 4523.390625 1910.578125 4650.78125 1047.929688 4605.398438 877.089844 Z M 4605.398438 877.089844 "/>
</clipPath>
<clipPath id="clip-31">
<path clip-rule="nonzero" d="M 189 2417 L 511 2417 L 511 4349 L 189 4349 Z M 189 2417 "/>
</clipPath>
<clipPath id="clip-32">
<path clip-rule="evenodd" d="M 4605.398438 877.089844 C 4385.109375 47.628906 726.636719 -4.308594 400.070312 693 C -96.398438 1753.089844 460.03125 3503.28125 325.769531 4405.675781 C 257.542969 4864.238281 1304.390625 4974.820312 2243.460938 4785.492188 C 3213.449219 4589.925781 3895.28125 4696.160156 4131.648438 4725.300781 C 4936.039062 4824.472656 5018.300781 3322.839844 4684.871094 2371.378906 C 4523.390625 1910.578125 4650.78125 1047.929688 4605.398438 877.089844 Z M 4605.398438 877.089844 "/>
</clipPath>
<clipPath id="clip-33">
<path clip-rule="nonzero" d="M 4583 2999 L 4870 2999 L 4870 4874 L 4583 4874 Z M 4583 2999 "/>
</clipPath>
<clipPath id="clip-34">
<path clip-rule="evenodd" d="M 4605.398438 877.089844 C 4385.109375 47.628906 726.636719 -4.308594 400.070312 693 C -96.398438 1753.089844 460.03125 3503.28125 325.769531 4405.675781 C 257.542969 4864.238281 1304.390625 4974.820312 2243.460938 4785.492188 C 3213.449219 4589.925781 3895.28125 4696.160156 4131.648438 4725.300781 C 4936.039062 4824.472656 5018.300781 3322.839844 4684.871094 2371.378906 C 4523.390625 1910.578125 4650.78125 1047.929688 4605.398438 877.089844 Z M 4605.398438 877.089844 "/>
</clipPath>
<clipPath id="clip-35">
<path clip-rule="nonzero" d="M 3439 3435 L 4698 3435 L 4698 3866 L 3439 3866 Z M 3439 3435 "/>
</clipPath>
<clipPath id="clip-36">
<path clip-rule="evenodd" d="M 4605.398438 877.089844 C 4385.109375 47.628906 726.636719 -4.308594 400.070312 693 C -96.398438 1753.089844 460.03125 3503.28125 325.769531 4405.675781 C 257.542969 4864.238281 1304.390625 4974.820312 2243.460938 4785.492188 C 3213.449219 4589.925781 3895.28125 4696.160156 4131.648438 4725.300781 C 4936.039062 4824.472656 5018.300781 3322.839844 4684.871094 2371.378906 C 4523.390625 1910.578125 4650.78125 1047.929688 4605.398438 877.089844 Z M 4605.398438 877.089844 "/>
</clipPath>
<clipPath id="clip-37">
<path clip-rule="nonzero" d="M 373 2742 L 1436 2742 L 1436 3020 L 373 3020 Z M 373 2742 "/>
</clipPath>
<clipPath id="clip-38">
<path clip-rule="evenodd" d="M 4605.398438 877.089844 C 4385.109375 47.628906 726.636719 -4.308594 400.070312 693 C -96.398438 1753.089844 460.03125 3503.28125 325.769531 4405.675781 C 257.542969 4864.238281 1304.390625 4974.820312 2243.460938 4785.492188 C 3213.449219 4589.925781 3895.28125 4696.160156 4131.648438 4725.300781 C 4936.039062 4824.472656 5018.300781 3322.839844 4684.871094 2371.378906 C 4523.390625 1910.578125 4650.78125 1047.929688 4605.398438 877.089844 Z M 4605.398438 877.089844 "/>
</clipPath>
<clipPath id="clip-39">
<path clip-rule="nonzero" d="M 324 2224 L 3267 2224 L 3267 3449 L 324 3449 Z M 324 2224 "/>
</clipPath>
<clipPath id="clip-40">
<path clip-rule="evenodd" d="M 4605.398438 877.089844 C 4385.109375 47.628906 726.636719 -4.308594 400.070312 693 C -96.398438 1753.089844 460.03125 3503.28125 325.769531 4405.675781 C 257.542969 4864.238281 1304.390625 4974.820312 2243.460938 4785.492188 C 3213.449219 4589.925781 3895.28125 4696.160156 4131.648438 4725.300781 C 4936.039062 4824.472656 5018.300781 3322.839844 4684.871094 2371.378906 C 4523.390625 1910.578125 4650.78125 1047.929688 4605.398438 877.089844 Z M 4605.398438 877.089844 "/>
</clipPath>
<clipPath id="clip-41">
<path clip-rule="nonzero" d="M 3266 2730 L 4769 2730 L 4769 3449 L 3266 3449 Z M 3266 2730 "/>
</clipPath>
<clipPath id="clip-42">
<path clip-rule="evenodd" d="M 4605.398438 877.089844 C 4385.109375 47.628906 726.636719 -4.308594 400.070312 693 C -96.398438 1753.089844 460.03125 3503.28125 325.769531 4405.675781 C 257.542969 4864.238281 1304.390625 4974.820312 2243.460938 4785.492188 C 3213.449219 4589.925781 3895.28125 4696.160156 4131.648438 4725.300781 C 4936.039062 4824.472656 5018.300781 3322.839844 4684.871094 2371.378906 C 4523.390625 1910.578125 4650.78125 1047.929688 4605.398438 877.089844 Z M 4605.398438 877.089844 "/>
</clipPath>
<clipPath id="clip-43">
<path clip-rule="nonzero" d="M 324 1933 L 4769 1933 L 4769 3177 L 324 3177 Z M 324 1933 "/>
</clipPath>
<clipPath id="clip-44">
<path clip-rule="evenodd" d="M 4605.398438 877.089844 C 4385.109375 47.628906 726.636719 -4.308594 400.070312 693 C -96.398438 1753.089844 460.03125 3503.28125 325.769531 4405.675781 C 257.542969 4864.238281 1304.390625 4974.820312 2243.460938 4785.492188 C 3213.449219 4589.925781 3895.28125 4696.160156 4131.648438 4725.300781 C 4936.039062 4824.472656 5018.300781 3322.839844 4684.871094 2371.378906 C 4523.390625 1910.578125 4650.78125 1047.929688 4605.398438 877.089844 Z M 4605.398438 877.089844 "/>
</clipPath>
<clipPath id="clip-45">
<path clip-rule="nonzero" d="M 1806 2139 L 3592 2139 L 3592 2710 L 1806 2710 Z M 1806 2139 "/>
</clipPath>
<clipPath id="clip-46">
<path clip-rule="evenodd" d="M 4605.398438 877.089844 C 4385.109375 47.628906 726.636719 -4.308594 400.070312 693 C -96.398438 1753.089844 460.03125 3503.28125 325.769531 4405.675781 C 257.542969 4864.238281 1304.390625 4974.820312 2243.460938 4785.492188 C 3213.449219 4589.925781 3895.28125 4696.160156 4131.648438 4725.300781 C 4936.039062 4824.472656 5018.300781 3322.839844 4684.871094 2371.378906 C 4523.390625 1910.578125 4650.78125 1047.929688 4605.398438 877.089844 Z M 4605.398438 877.089844 "/>
</clipPath>
<clipPath id="clip-47">
<path clip-rule="nonzero" d="M 1806 2139 L 3592 2139 L 3592 2696 L 1806 2696 Z M 1806 2139 "/>
</clipPath>
<clipPath id="clip-48">
<path clip-rule="evenodd" d="M 4605.398438 877.089844 C 4385.109375 47.628906 726.636719 -4.308594 400.070312 693 C -96.398438 1753.089844 460.03125 3503.28125 325.769531 4405.675781 C 257.542969 4864.238281 1304.390625 4974.820312 2243.460938 4785.492188 C 3213.449219 4589.925781 3895.28125 4696.160156 4131.648438 4725.300781 C 4936.039062 4824.472656 5018.300781 3322.839844 4684.871094 2371.378906 C 4523.390625 1910.578125 4650.78125 1047.929688 4605.398438 877.089844 Z M 4605.398438 877.089844 "/>
</clipPath>
<clipPath id="clip-49">
<path clip-rule="nonzero" d="M 3158 2028 L 3968 2028 L 3968 2609 L 3158 2609 Z M 3158 2028 "/>
</clipPath>
<clipPath id="clip-50">
<path clip-rule="evenodd" d="M 4605.398438 877.089844 C 4385.109375 47.628906 726.636719 -4.308594 400.070312 693 C -96.398438 1753.089844 460.03125 3503.28125 325.769531 4405.675781 C 257.542969 4864.238281 1304.390625 4974.820312 2243.460938 4785.492188 C 3213.449219 4589.925781 3895.28125 4696.160156 4131.648438 4725.300781 C 4936.039062 4824.472656 5018.300781 3322.839844 4684.871094 2371.378906 C 4523.390625 1910.578125 4650.78125 1047.929688 4605.398438 877.089844 Z M 4605.398438 877.089844 "/>
</clipPath>
<clipPath id="clip-51">
<path clip-rule="nonzero" d="M 1632 1239 L 3132 1239 L 3132 2777 L 1632 2777 Z M 1632 1239 "/>
</clipPath>
<clipPath id="clip-52">
<path clip-rule="evenodd" d="M 4605.398438 877.089844 C 4385.109375 47.628906 726.636719 -4.308594 400.070312 693 C -96.398438 1753.089844 460.03125 3503.28125 325.769531 4405.675781 C 257.542969 4864.238281 1304.390625 4974.820312 2243.460938 4785.492188 C 3213.449219 4589.925781 3895.28125 4696.160156 4131.648438 4725.300781 C 4936.039062 4824.472656 5018.300781 3322.839844 4684.871094 2371.378906 C 4523.390625 1910.578125 4650.78125 1047.929688 4605.398438 877.089844 Z M 4605.398438 877.089844 "/>
</clipPath>
<clipPath id="clip-53">
<path clip-rule="nonzero" d="M 1632 1268 L 3095 1268 L 3095 2777 L 1632 2777 Z M 1632 1268 "/>
</clipPath>
<clipPath id="clip-54">
<path clip-rule="evenodd" d="M 4605.398438 877.089844 C 4385.109375 47.628906 726.636719 -4.308594 400.070312 693 C -96.398438 1753.089844 460.03125 3503.28125 325.769531 4405.675781 C 257.542969 4864.238281 1304.390625 4974.820312 2243.460938 4785.492188 C 3213.449219 4589.925781 3895.28125 4696.160156 4131.648438 4725.300781 C 4936.039062 4824.472656 5018.300781 3322.839844 4684.871094 2371.378906 C 4523.390625 1910.578125 4650.78125 1047.929688 4605.398438 877.089844 Z M 4605.398438 877.089844 "/>
</clipPath>
<clipPath id="clip-55">
<path clip-rule="nonzero" d="M 1915 2119 L 2599 2119 L 2599 2804 L 1915 2804 Z M 1915 2119 "/>
</clipPath>
<clipPath id="clip-56">
<path clip-rule="evenodd" d="M 4605.398438 877.089844 C 4385.109375 47.628906 726.636719 -4.308594 400.070312 693 C -96.398438 1753.089844 460.03125 3503.28125 325.769531 4405.675781 C 257.542969 4864.238281 1304.390625 4974.820312 2243.460938 4785.492188 C 3213.449219 4589.925781 3895.28125 4696.160156 4131.648438 4725.300781 C 4936.039062 4824.472656 5018.300781 3322.839844 4684.871094 2371.378906 C 4523.390625 1910.578125 4650.78125 1047.929688 4605.398438 877.089844 Z M 4605.398438 877.089844 "/>
</clipPath>
<clipPath id="clip-57">
<path clip-rule="nonzero" d="M 959 1876 L 1401 1876 L 1401 2319 L 959 2319 Z M 959 1876 "/>
</clipPath>
<clipPath id="clip-58">
<path clip-rule="evenodd" d="M 4605.398438 877.089844 C 4385.109375 47.628906 726.636719 -4.308594 400.070312 693 C -96.398438 1753.089844 460.03125 3503.28125 325.769531 4405.675781 C 257.542969 4864.238281 1304.390625 4974.820312 2243.460938 4785.492188 C 3213.449219 4589.925781 3895.28125 4696.160156 4131.648438 4725.300781 C 4936.039062 4824.472656 5018.300781 3322.839844 4684.871094 2371.378906 C 4523.390625 1910.578125 4650.78125 1047.929688 4605.398438 877.089844 Z M 4605.398438 877.089844 "/>
</clipPath>
<clipPath id="clip-59">
<path clip-rule="nonzero" d="M 959 1813 L 1401 1813 L 1401 1974 L 959 1974 Z M 959 1813 "/>
</clipPath>
<clipPath id="clip-60">
<path clip-rule="evenodd" d="M 4605.398438 877.089844 C 4385.109375 47.628906 726.636719 -4.308594 400.070312 693 C -96.398438 1753.089844 460.03125 3503.28125 325.769531 4405.675781 C 257.542969 4864.238281 1304.390625 4974.820312 2243.460938 4785.492188 C 3213.449219 4589.925781 3895.28125 4696.160156 4131.648438 4725.300781 C 4936.039062 4824.472656 5018.300781 3322.839844 4684.871094 2371.378906 C 4523.390625 1910.578125 4650.78125 1047.929688 4605.398438 877.089844 Z M 4605.398438 877.089844 "/>
</clipPath>
<clipPath id="clip-61">
<path clip-rule="nonzero" d="M 788 1122 L 1515 1122 L 1515 1918 L 788 1918 Z M 788 1122 "/>
</clipPath>
<clipPath id="clip-62">
<path clip-rule="evenodd" d="M 4605.398438 877.089844 C 4385.109375 47.628906 726.636719 -4.308594 400.070312 693 C -96.398438 1753.089844 460.03125 3503.28125 325.769531 4405.675781 C 257.542969 4864.238281 1304.390625 4974.820312 2243.460938 4785.492188 C 3213.449219 4589.925781 3895.28125 4696.160156 4131.648438 4725.300781 C 4936.039062 4824.472656 5018.300781 3322.839844 4684.871094 2371.378906 C 4523.390625 1910.578125 4650.78125 1047.929688 4605.398438 877.089844 Z M 4605.398438 877.089844 "/>
</clipPath>
<clipPath id="clip-63">
<path clip-rule="nonzero" d="M 3549 2601 L 3951 2601 L 3951 2906 L 3549 2906 Z M 3549 2601 "/>
</clipPath>
<clipPath id="clip-64">
<path clip-rule="evenodd" d="M 4605.398438 877.089844 C 4385.109375 47.628906 726.636719 -4.308594 400.070312 693 C -96.398438 1753.089844 460.03125 3503.28125 325.769531 4405.675781 C 257.542969 4864.238281 1304.390625 4974.820312 2243.460938 4785.492188 C 3213.449219 4589.925781 3895.28125 4696.160156 4131.648438 4725.300781 C 4936.039062 4824.472656 5018.300781 3322.839844 4684.871094 2371.378906 C 4523.390625 1910.578125 4650.78125 1047.929688 4605.398438 877.089844 Z M 4605.398438 877.089844 "/>
</clipPath>
<clipPath id="clip-65">
<path clip-rule="nonzero" d="M 3563 2312 L 3781 2312 L 3781 2584 L 3563 2584 Z M 3563 2312 "/>
</clipPath>
<clipPath id="clip-66">
<path clip-rule="evenodd" d="M 4605.398438 877.089844 C 4385.109375 47.628906 726.636719 -4.308594 400.070312 693 C -96.398438 1753.089844 460.03125 3503.28125 325.769531 4405.675781 C 257.542969 4864.238281 1304.390625 4974.820312 2243.460938 4785.492188 C 3213.449219 4589.925781 3895.28125 4696.160156 4131.648438 4725.300781 C 4936.039062 4824.472656 5018.300781 3322.839844 4684.871094 2371.378906 C 4523.390625 1910.578125 4650.78125 1047.929688 4605.398438 877.089844 Z M 4605.398438 877.089844 "/>
</clipPath>
</defs>
<path fill-rule="evenodd" fill="rgb(92.576599%, 88.671875%, 84.764099%)" fill-opacity="1" d="M 4605.398438 877.089844 C 4385.109375 47.628906 726.636719 -4.308594 400.070312 693 C -96.398438 1753.089844 460.03125 3503.28125 325.769531 4405.675781 C 257.542969 4864.238281 1304.390625 4974.820312 2243.460938 4785.492188 C 3213.449219 4589.925781 3895.28125 4696.160156 4131.648438 4725.300781 C 4936.039062 4824.472656 5018.300781 3322.839844 4684.871094 2371.378906 C 4523.390625 1910.578125 4650.78125 1047.929688 4605.398438 877.089844 "/>
<g clip-path="url(#clip-0)">
<g clip-path="url(#clip-1)">
<path fill-rule="evenodd" fill="rgb(96.09375%, 83.006287%, 75.78125%)" fill-opacity="1" d="M 3068.179688 3856.640625 C 3832.648438 3923.039062 4430.039062 4244.675781 4401.398438 4574.445312 C 4372.761719 4904.210938 3728.851562 5118.03125 2964.378906 5051.632812 C 2199.910156 4985.230469 1602.519531 4663.59375 1631.160156 4333.828125 C 1659.800781 4004.058594 2303.710938 3790.238281 3068.179688 3856.640625 "/>
</g>
</g>
<g clip-path="url(#clip-2)">
<g clip-path="url(#clip-3)">
<path fill-rule="evenodd" fill="rgb(56.054688%, 33.68988%, 26.292419%)" fill-opacity="1" d="M 4452.949219 1908.820312 C 4458.210938 1818.699219 4403.671875 1735.808594 4318.808594 1705 C 4087.378906 1621.101562 3712.789062 1548.628906 3543.640625 1532.828125 L 3593.28125 2424.199219 L 4328.460938 2688.929688 C 4393.601562 2465.320312 4437.261719 2175.050781 4452.949219 1908.820312 "/>
</g>
</g>
<g clip-path="url(#clip-4)">
<g clip-path="url(#clip-5)">
<path fill-rule="evenodd" fill="rgb(98.826599%, 65.429688%, 56.443787%)" fill-opacity="1" d="M 2406.121094 3957.859375 C 2385.511719 3958.03125 2356.5 4001.304688 2339.628906 4013.957031 C 2325.46875 4024.578125 2315.558594 4040.730469 2302.230469 4052.394531 C 2264.640625 4085.289062 2226.101562 4116.601562 2190.03125 4151.089844 C 2124.699219 4213.5625 2044.261719 4214.511719 2046.671875 4224.851562 C 2055.101562 4261.089844 2120.25 4284.167969 2220.160156 4207.1875 C 2255.050781 4180.308594 2301.269531 4232.898438 2333.398438 4218.617188 C 2391.511719 4192.785156 2338.460938 4144.308594 2358.328125 4109.53125 C 2377.210938 4076.488281 2453.5 4042.1875 2463.261719 4012.917969 C 2470.539062 3991.078125 2426.730469 3957.679688 2406.121094 3957.859375 "/>
</g>
</g>
<g clip-path="url(#clip-6)">
<g clip-path="url(#clip-7)">
<path fill-rule="evenodd" fill="rgb(46.702576%, 28.196716%, 21.604919%)" fill-opacity="1" d="M 3231.851562 3354.308594 C 3224.101562 3353.21875 2890.378906 3192.460938 2845.789062 3205.199219 C 2826.179688 3210.800781 2686.929688 3442.53125 2661.988281 3476.53125 C 2596.28125 3566.140625 2541.488281 3664.378906 2476 3754.421875 C 2436.46875 3808.78125 2375.460938 3880.980469 2353.460938 3946.980469 C 2342.210938 3980.71875 2439.109375 4067.429688 2471.621094 4078.269531 C 2483.910156 4082.363281 2483.511719 4066.570312 2486.941406 4058.574219 C 2490.648438 4049.917969 2495.21875 4040.390625 2500.070312 4032.316406 C 2534.570312 3974.808594 2610.648438 3939.738281 2672.929688 3927.289062 C 2704.179688 3921.039062 2734.421875 3936.621094 2764.828125 3916.351562 C 2805 3889.570312 2826.589844 3839.269531 2858.921875 3806.941406 C 2876.289062 3789.570312 2906.019531 3793.710938 2920.191406 3765.359375 C 2944.449219 3716.851562 2924.789062 3649.769531 2974.890625 3612.191406 C 2992.191406 3599.21875 3014.398438 3597.019531 3033.980469 3588.121094 C 3127.050781 3545.820312 3192.960938 3442.179688 3231.851562 3354.308594 "/>
</g>
</g>
<g clip-path="url(#clip-8)">
<g clip-path="url(#clip-9)">
<path fill-rule="evenodd" fill="rgb(98.826599%, 65.429688%, 56.443787%)" fill-opacity="1" d="M 2619.640625 4030.480469 C 2602.121094 4041.328125 2599.800781 4093.382812 2591.960938 4112.953125 C 2585.371094 4129.386719 2585.300781 4148.332031 2579.960938 4165.226562 C 2564.921875 4212.859375 2548.25 4259.636719 2535.339844 4307.839844 C 2511.960938 4395.15625 2443.71875 4437.75 2451.140625 4445.335938 C 2477.179688 4471.921875 2544.839844 4457.800781 2590.230469 4340.128906 C 2606.078125 4299.039062 2672.890625 4319.972656 2692.929688 4291.078125 C 2729.179688 4238.820312 2658.660156 4224.953125 2657.578125 4184.914062 C 2656.550781 4146.867188 2703.929688 4077.933594 2697.058594 4047.851562 C 2691.941406 4025.414062 2637.148438 4019.628906 2619.640625 4030.480469 "/>
</g>
</g>
<g clip-path="url(#clip-10)">
<g clip-path="url(#clip-11)">
<path fill-rule="evenodd" fill="rgb(56.054688%, 33.68988%, 25.901794%)" fill-opacity="1" d="M 2895.648438 3015.929688 C 2888.730469 3019.609375 2515.980469 3077.789062 2488.539062 3115.609375 C 2476.480469 3132.238281 2516.261719 3418.828125 2518.488281 3463.570312 C 2524.359375 3581.488281 2544.628906 3700.449219 2550.96875 3818.609375 C 2554.789062 3889.929688 2553.058594 3989.75 2578.558594 4060.824219 C 2591.589844 4097.164062 2725.988281 4115.410156 2759.148438 4105.507812 C 2771.679688 4101.765625 2761.039062 4088.136719 2758.558594 4079.070312 C 2755.878906 4069.257812 2753.320312 4058.160156 2751.929688 4048.179688 C 2742.011719 3977.089844 2780.101562 3900.871094 2821.921875 3852.738281 C 2842.890625 3828.589844 2877.328125 3824.210938 2888.46875 3788.238281 C 2903.191406 3740.75 2887.628906 3683.699219 2892.421875 3636.011719 C 2895 3610.378906 2921.550781 3596.261719 2914.390625 3562.921875 C 2902.128906 3505.839844 2842.511719 3458.691406 2858.140625 3395.789062 C 2863.53125 3374.070312 2879.898438 3358.871094 2889.789062 3339.371094 C 2936.789062 3246.640625 2921.898438 3116.308594 2895.648438 3015.929688 "/>
</g>
</g>
<g clip-path="url(#clip-12)">
<g clip-path="url(#clip-13)">
<path fill-rule="evenodd" fill="rgb(34.49707%, 36.497498%, 61.914062%)" fill-opacity="1" d="M 4058.328125 2603.851562 C 4100.390625 1988.898438 4030.21875 1715.339844 3869.378906 1561.398438 C 3767.128906 1463.550781 3522.429688 1418.160156 3307.429688 1468.421875 C 3094.46875 1518.210938 2883 1698.648438 2885.078125 1727.660156 L 3019.421875 2204.601562 L 3240.140625 2052.789062 L 3262.128906 2336.628906 L 4058.328125 2603.851562 "/>
</g>
</g>
<g clip-path="url(#clip-14)">
<g clip-path="url(#clip-15)">
<path fill-rule="evenodd" fill="rgb(99.21875%, 65.429688%, 55.664062%)" fill-opacity="1" d="M 3593.28125 1157.230469 L 3418.820312 1157.230469 C 3418.820312 1157.230469 3429.488281 1388.550781 3418.820312 1444.851562 C 3413.550781 1472.628906 3354.769531 1495.011719 3354.769531 1495.011719 C 3354.769531 1495.011719 3395.539062 1627.609375 3448.179688 1632.28125 C 3521.429688 1638.769531 3794.269531 1534.011719 3794.269531 1534.011719 C 3794.269531 1534.011719 3675.828125 1435.429688 3644.679688 1377.03125 C 3611.179688 1314.230469 3593.28125 1157.230469 3593.28125 1157.230469 "/>
</g>
</g>
<g clip-path="url(#clip-16)">
<g clip-path="url(#clip-17)">
<g clip-path="url(#clip-18)">
<path fill-rule="evenodd" fill="rgb(98.4375%, 50.976562%, 37.304688%)" fill-opacity="1" d="M 3324.839844 1038.519531 C 3392.230469 1026.980469 3495.589844 1105.828125 3514.179688 1214.441406 C 3532.769531 1323.050781 3513.171875 1429.320312 3399.300781 1442.578125 C 3347.980469 1448.550781 3325.308594 1378.71875 3295.5 1265.46875 C 3265.601562 1151.910156 3257.460938 1050.050781 3324.839844 1038.519531 "/>
</g>
</g>
</g>
<g clip-path="url(#clip-19)">
<g clip-path="url(#clip-20)">
<path fill-rule="evenodd" fill="rgb(98.826599%, 65.818787%, 56.054688%)" fill-opacity="1" d="M 3327.019531 1006.941406 C 3426.019531 990 3570.328125 1061.820312 3588.910156 1170.410156 C 3607.5 1279 3570.671875 1388.199219 3403.878906 1410.519531 C 3328.710938 1420.578125 3301.160156 1351.589844 3266.589844 1239.179688 C 3231.929688 1126.449219 3228.019531 1023.890625 3327.019531 1006.941406 "/>
</g>
</g>
<g clip-path="url(#clip-21)">
<g clip-path="url(#clip-22)">
<path fill-rule="evenodd" fill="rgb(27.488708%, 24.291992%, 23.509216%)" fill-opacity="1" d="M 3215.140625 1136.109375 C 3219.308594 1130.910156 3235.128906 1130.628906 3241.878906 1126.128906 C 3254.96875 1117.398438 3244.871094 1087.929688 3257.53125 1084.761719 C 3270.789062 1081.449219 3283.128906 1095.699219 3297.378906 1095.699219 C 3329.070312 1095.699219 3322.039062 1067.351562 3330.96875 1062.890625 C 3333.460938 1061.640625 3338.351562 1063.449219 3340.339844 1064.449219 C 3389.089844 1088.820312 3382.859375 1020.550781 3420.808594 1033.199219 C 3434.578125 1037.789062 3438.480469 1051.761719 3450.5 1058.980469 C 3465.28125 1067.839844 3482.078125 1048.601562 3495.03125 1055.070312 C 3496.800781 1055.960938 3496.828125 1058.890625 3496.589844 1060.539062 C 3493.960938 1079.011719 3481.621094 1099.46875 3497.378906 1115.230469 C 3506.328125 1124.179688 3554.078125 1080.199219 3574.71875 1121.480469 C 3587.648438 1147.339844 3550.339844 1211.160156 3570.03125 1230.851562 C 3591.300781 1252.121094 3616.121094 1216.03125 3620.808594 1198.820312 C 3627.859375 1172.988281 3619.289062 1148.070312 3620.808594 1122.261719 C 3620.949219 1119.910156 3621.28125 1117.570312 3621.589844 1115.230469 C 3625.210938 1088.078125 3650.429688 1041.539062 3643.46875 1016.011719 C 3636.121094 989.058594 3605.988281 987.910156 3588.78125 970.699219 C 3580.710938 962.628906 3580.46875 949.53125 3570.03125 942.570312 C 3558.03125 934.570312 3539.371094 941.921875 3533.308594 937.890625 C 3526.289062 933.210938 3530.808594 910.429688 3516.910156 901.171875 C 3494.03125 885.910156 3463.421875 905.320312 3459.089844 902.730469 C 3444.328125 893.871094 3453.941406 844.941406 3398.160156 833.199219 C 3395.808594 832.710938 3393.5 832 3391.128906 831.640625 C 3385.578125 830.808594 3378.71875 830.601562 3373.160156 830.859375 C 3333.460938 832.660156 3346.199219 879.101562 3327.058594 888.671875 C 3298.648438 902.878906 3279.839844 880.070312 3253.628906 912.109375 C 3252.570312 913.398438 3251.300781 914.550781 3250.5 916.011719 C 3242.410156 930.851562 3258.078125 954.070312 3248.160156 965.230469 C 3234.320312 980.800781 3203.289062 952.511719 3173.160156 1002.730469 C 3151.988281 1038.019531 3186.828125 1051.550781 3181.75 1066.789062 C 3178.710938 1075.929688 3171.578125 1083.671875 3167.691406 1092.570312 C 3152.261719 1127.851562 3168.660156 1155.070312 3205.191406 1155.070312 C 3223.21875 1155.070312 3210.96875 1141.320312 3215.140625 1136.109375 "/>
</g>
</g>
<g clip-path="url(#clip-23)">
<g clip-path="url(#clip-24)">
<path fill-rule="evenodd" fill="rgb(40.405273%, 40.405273%, 40.405273%)" fill-opacity="1" d="M 3229.460938 3272.410156 L 3091.578125 3862.640625 C 3089.449219 3871.738281 3095.109375 3880.851562 3104.210938 3882.96875 C 3113.300781 3885.089844 3122.410156 3879.441406 3124.53125 3870.339844 L 3262.421875 3280.109375 C 3264.539062 3271.019531 3258.878906 3261.910156 3249.789062 3259.78125 C 3240.699219 3257.660156 3231.589844 3263.320312 3229.460938 3272.410156 "/>
</g>
</g>
<g clip-path="url(#clip-25)">
<g clip-path="url(#clip-26)">
<path fill-rule="evenodd" fill="rgb(40.405273%, 40.405273%, 40.405273%)" fill-opacity="1" d="M 3750.011719 3212.480469 L 3766.761719 4007.066406 C 3767.019531 4019.308594 3775.859375 4029.449219 3786.488281 4029.695312 C 3797.128906 4029.9375 3805.550781 4020.199219 3805.300781 4007.957031 L 3788.550781 3213.371094 C 3788.289062 3201.128906 3779.449219 3190.988281 3768.808594 3190.738281 C 3758.179688 3190.5 3749.75 3200.238281 3750.011719 3212.480469 "/>
</g>
</g>
<g clip-path="url(#clip-27)">
<g clip-path="url(#clip-28)">
<path fill-rule="evenodd" fill="rgb(40.405273%, 40.405273%, 40.405273%)" fill-opacity="1" d="M 4150.191406 2978.761719 L 4365.390625 3910.109375 C 4368.710938 3924.460938 4380.921875 3933.851562 4392.640625 3931.070312 C 4404.371094 3928.289062 4411.199219 3914.378906 4407.878906 3900.039062 L 4192.679688 2968.691406 C 4189.371094 2954.339844 4177.148438 2944.949219 4165.429688 2947.730469 C 4153.710938 2950.511719 4146.878906 2964.410156 4150.191406 2978.761719 "/>
</g>
</g>
<g clip-path="url(#clip-29)">
<g clip-path="url(#clip-30)">
<path fill-rule="evenodd" fill="rgb(42.700195%, 42.700195%, 42.700195%)" fill-opacity="1" d="M 3338.339844 3386.738281 L 3715.078125 5269.597656 C 3717.230469 5280.320312 3727.679688 5287.285156 3738.398438 5285.140625 C 3749.128906 5282.996094 3756.089844 5272.546875 3753.949219 5261.820312 L 3377.199219 3378.960938 C 3375.058594 3368.238281 3364.609375 3361.269531 3353.878906 3363.421875 C 3343.160156 3365.570312 3336.191406 3376.019531 3338.339844 3386.738281 "/>
</g>
</g>
<g clip-path="url(#clip-31)">
<g clip-path="url(#clip-32)">
<path fill-rule="evenodd" fill="rgb(42.700195%, 42.700195%, 42.700195%)" fill-opacity="1" d="M 510.144531 2440.660156 L 177.992188 4331.898438 C 176.097656 4342.671875 165.816406 4349.878906 155.046875 4347.988281 C 144.273438 4346.097656 137.0625 4335.8125 138.953125 4325.039062 L 471.109375 2433.808594 C 473 2423.039062 483.28125 2415.828125 494.054688 2417.71875 C 504.828125 2419.609375 512.035156 2429.890625 510.144531 2440.660156 "/>
</g>
</g>
<g clip-path="url(#clip-33)">
<g clip-path="url(#clip-34)">
<path fill-rule="evenodd" fill="rgb(42.700195%, 42.700195%, 42.700195%)" fill-opacity="1" d="M 4584 3023.539062 L 4960.75 4906.402344 C 4962.890625 4917.125 4973.339844 4924.089844 4984.070312 4921.945312 C 4994.789062 4919.796875 5001.761719 4909.347656 4999.609375 4898.625 L 4622.871094 3015.769531 C 4620.71875 3005.039062 4610.269531 2998.078125 4599.550781 3000.21875 C 4588.820312 3002.371094 4581.859375 3012.820312 4584 3023.539062 "/>
</g>
</g>
<g clip-path="url(#clip-35)">
<g clip-path="url(#clip-36)">
<path fill-rule="evenodd" fill="rgb(42.700195%, 42.700195%, 42.700195%)" fill-opacity="1" d="M 3465.558594 3864.398438 L 4684.019531 3474.429688 C 4694.441406 3471.101562 4700.191406 3459.929688 4696.851562 3449.519531 C 4693.519531 3439.101562 4682.359375 3433.351562 4671.941406 3436.679688 L 3453.480469 3826.660156 C 3443.058594 3829.988281 3437.308594 3841.148438 3440.640625 3851.570312 C 3443.980469 3861.988281 3455.140625 3867.738281 3465.558594 3864.398438 "/>
</g>
</g>
<g clip-path="url(#clip-37)">
<g clip-path="url(#clip-38)">
<path fill-rule="evenodd" fill="rgb(42.700195%, 42.700195%, 42.700195%)" fill-opacity="1" d="M 397.886719 3019.140625 L 1419.769531 2781.851562 C 1430.421875 2779.378906 1437.058594 2768.71875 1434.589844 2758.070312 C 1432.109375 2747.410156 1421.460938 2740.769531 1410.800781 2743.25 L 388.921875 2980.53125 C 378.265625 2983.011719 371.625 2993.660156 374.097656 3004.320312 C 376.574219 3014.96875 387.230469 3021.609375 397.886719 3019.140625 "/>
</g>
</g>
<g clip-path="url(#clip-39)">
<g clip-path="url(#clip-40)">
<path fill-rule="evenodd" fill="rgb(61.131287%, 57.226562%, 56.054688%)" fill-opacity="1" d="M 324.550781 2224.738281 L 324.550781 2509.679688 L 3266.589844 3448.828125 L 3266.589844 3176.5 L 324.550781 2224.738281 "/>
</g>
</g>
<g clip-path="url(#clip-41)">
<g clip-path="url(#clip-42)">
<path fill-rule="evenodd" fill="rgb(51.367188%, 47.093201%, 45.506287%)" fill-opacity="1" d="M 4768.949219 2730.308594 L 3266.589844 3176.5 L 3266.589844 3448.828125 L 4768.949219 2988.421875 L 4768.949219 2730.308594 "/>
</g>
</g>
<g clip-path="url(#clip-43)">
<g clip-path="url(#clip-44)">
<path fill-rule="evenodd" fill="rgb(36.497498%, 33.300781%, 32.200623%)" fill-opacity="1" d="M 1828.941406 1933.421875 L 324.550781 2235.980469 L 3264.191406 3176.5 L 4768.949219 2730.308594 L 1828.941406 1933.421875 "/>
</g>
</g>
<g clip-path="url(#clip-45)">
<g clip-path="url(#clip-46)">
<path fill-rule="evenodd" fill="rgb(99.609375%, 99.609375%, 99.21875%)" fill-opacity="1" d="M 3591.03125 2542.558594 L 2322.648438 2139.738281 L 1806.789062 2292.148438 L 3215.871094 2709.21875 L 3591.03125 2555.691406 L 3591.03125 2542.558594 "/>
</g>
</g>
<g clip-path="url(#clip-47)">
<g clip-path="url(#clip-48)">
<path fill-rule="evenodd" fill="rgb(92.1875%, 88.671875%, 85.15625%)" fill-opacity="1" d="M 3591.03125 2542.558594 L 2322.648438 2139.738281 L 1806.789062 2292.148438 L 3213.210938 2695.53125 L 3591.03125 2542.558594 "/>
</g>
</g>
<g clip-path="url(#clip-49)">
<g clip-path="url(#clip-50)">
<path fill-rule="evenodd" fill="rgb(99.21875%, 65.429688%, 55.664062%)" fill-opacity="1" d="M 3768.480469 2029.949219 C 3769.601562 2021.421875 3967.539062 2058.578125 3967.539062 2058.578125 C 3967.539062 2058.578125 3930.550781 2236.328125 3915.230469 2282.28125 C 3902.101562 2321.679688 3811.171875 2380.058594 3779.28125 2396 C 3749.488281 2410.898438 3518.25 2490.160156 3450.058594 2515.269531 C 3423.199219 2525.148438 3397.519531 2541.148438 3370.140625 2546.628906 C 3348.449219 2550.96875 3317.96875 2549.589844 3297.140625 2556.539062 C 3278.660156 2562.699219 3268.390625 2592.648438 3256.5 2601.941406 C 3228.511719 2623.789062 3231.339844 2590.128906 3244.351562 2563.839844 C 3256.421875 2539.441406 3174.621094 2623.53125 3161.898438 2598.089844 C 3153.230469 2580.75 3165.238281 2548.289062 3172.359375 2534.050781 C 3204.308594 2470.160156 3235.738281 2450 3280.421875 2445.148438 C 3287.828125 2444.351562 3375.828125 2449.359375 3388.441406 2443.058594 C 3445.960938 2414.300781 3497.710938 2372.199219 3551.839844 2337.179688 C 3719.851562 2228.460938 3739.261719 2251.800781 3768.480469 2029.949219 "/>
</g>
</g>
<g clip-path="url(#clip-51)">
<g clip-path="url(#clip-52)">
<path fill-rule="evenodd" fill="rgb(99.609375%, 99.609375%, 99.21875%)" fill-opacity="1" d="M 3128.328125 1659.339844 L 1669.359375 1239.179688 L 1632.359375 1268.320312 L 1673.710938 2315.101562 L 3094.03125 2776.179688 L 3131.289062 2776.179688 L 3128.328125 1659.339844 "/>
</g>
</g>
<g clip-path="url(#clip-53)">
<g clip-path="url(#clip-54)">
<path fill-rule="evenodd" fill="rgb(92.1875%, 88.671875%, 85.15625%)" fill-opacity="1" d="M 3088.890625 1686.53125 L 1632.359375 1268.320312 L 1673.710938 2315.101562 L 3094.03125 2776.179688 L 3088.890625 1686.53125 "/>
</g>
</g>
<g clip-path="url(#clip-55)">
<g clip-path="url(#clip-56)">
<path fill-rule="evenodd" fill="rgb(92.1875%, 88.671875%, 85.15625%)" fill-opacity="1" d="M 2381.570312 2170.269531 C 2381.941406 2158.621094 2373.761719 2148.441406 2362.308594 2146.28125 C 2329.238281 2140.039062 2262.878906 2127.511719 2225.148438 2120.390625 C 2218.25 2119.078125 2211.121094 2120.910156 2205.699219 2125.378906 C 2200.289062 2129.851562 2197.128906 2136.5 2197.101562 2143.519531 C 2196.589844 2247.570312 2196.21875 2592.730469 2196.21875 2592.730469 C 2196.21875 2592.730469 2043.539062 2542.359375 2003.300781 2531.410156 C 1997.101562 2529.71875 1990.53125 2530.109375 1984.578125 2532.519531 C 1970.46875 2538.269531 1958.949219 2545.550781 1932.210938 2558.359375 C 1921.308594 2563.621094 1914.769531 2575.03125 1915.71875 2587.089844 C 1916.679688 2599.148438 1924.929688 2609.390625 1936.519531 2612.878906 C 2085.929688 2657.898438 2444.609375 2778.328125 2525.148438 2802.589844 C 2535.078125 2805.589844 2545.851562 2803.628906 2554.089844 2797.328125 C 2566.699219 2787.679688 2566.761719 2788.179688 2585.75 2773.660156 C 2595.5 2766.199219 2600.179688 2753.851562 2597.820312 2741.800781 C 2595.460938 2729.738281 2586.300781 2720.628906 2574.609375 2716.839844 C 2497.738281 2691.980469 2363.191406 2647.210938 2363.191406 2647.210938 C 2363.191406 2647.210938 2378.621094 2264.328125 2381.570312 2170.269531 "/>
</g>
</g>
<g clip-path="url(#clip-57)">
<g clip-path="url(#clip-58)">
<path fill-rule="evenodd" fill="rgb(97.264099%, 97.264099%, 96.875%)" fill-opacity="1" d="M 1400.488281 1876.800781 C 1400.488281 1876.800781 1400.488281 2063.25 1400.488281 2193.96875 C 1400.488281 2227.078125 1387.339844 2258.839844 1363.921875 2282.261719 C 1340.511719 2305.671875 1308.75 2318.828125 1275.640625 2318.828125 C 1215.71875 2318.828125 1144.121094 2318.828125 1084.210938 2318.828125 C 1051.101562 2318.828125 1019.339844 2305.671875 995.925781 2282.261719 C 972.511719 2258.839844 959.355469 2227.078125 959.355469 2193.96875 C 959.355469 2063.25 959.355469 1876.800781 959.355469 1876.800781 C 959.355469 1926.089844 1058.191406 1966.101562 1179.921875 1966.101562 C 1301.660156 1966.101562 1400.488281 1926.089844 1400.488281 1876.800781 "/>
</g>
</g>
<g clip-path="url(#clip-59)">
<g clip-path="url(#clip-60)">
<path fill-rule="evenodd" fill="rgb(36.497498%, 32.910156%, 31.809998%)" fill-opacity="1" d="M 1179.921875 1813.308594 C 1301.660156 1813.308594 1400.488281 1849.191406 1400.488281 1893.371094 C 1400.488281 1937.550781 1301.660156 1973.421875 1179.921875 1973.421875 C 1058.191406 1973.421875 959.355469 1937.550781 959.355469 1893.371094 C 959.355469 1849.191406 1058.191406 1813.308594 1179.921875 1813.308594 "/>
</g>
</g>
<g clip-path="url(#clip-61)">
<g clip-path="url(#clip-62)">
<path fill-rule="evenodd" fill="rgb(34.49707%, 62.304688%, 54.881287%)" fill-opacity="1" d="M 1176.589844 1916.589844 C 1132.558594 1912.800781 1090.921875 1911.53125 1056.429688 1904.628906 C 951.546875 1883.660156 837.640625 1806.519531 799.34375 1701.210938 C 794.429688 1687.691406 781.785156 1647.511719 792.308594 1634.359375 C 807.074219 1615.890625 854.988281 1673.648438 863.847656 1683.609375 C 889.816406 1712.828125 927.6875 1732.371094 951.8125 1764.539062 C 958.003906 1772.800781 970.578125 1789.171875 970.578125 1789.171875 C 970.578125 1789.171875 968.929688 1786.871094 968.230469 1785.648438 C 960.378906 1771.910156 952.167969 1758.171875 942.429688 1745.769531 C 916.085938 1712.25 872.988281 1650.96875 862.675781 1609.730469 C 855.777344 1582.140625 795.210938 1379.421875 849.773438 1365.78125 C 883.886719 1357.25 998.878906 1622.941406 1025.699219 1676.578125 C 1025.71875 1676.621094 1031.078125 1687.128906 1032.738281 1687.128906 C 1033.011719 1687.128906 1023.980469 1667.761719 1019.839844 1657.808594 C 1007.851562 1629.050781 1002.160156 1597.789062 990.515625 1568.679688 C 956.335938 1483.230469 949.410156 1394.171875 955.328125 1302.441406 C 956.007812 1291.929688 957.667969 1215.910156 979.960938 1223.871094 C 1027.261719 1240.761719 1036.640625 1318.839844 1050.328125 1359.910156 C 1050.53125 1360.5 1054.949219 1369.359375 1055.019531 1369.300781 C 1068.71875 1355.601562 1035.191406 1141.070312 1098.421875 1123 C 1113.128906 1118.800781 1123.238281 1141.609375 1127.738281 1151.148438 C 1154.46875 1207.960938 1142.929688 1285.359375 1147.671875 1347.011719 C 1153.359375 1420.929688 1170.199219 1494.398438 1179.339844 1567.5 C 1179.671875 1570.179688 1184.210938 1614.421875 1193.410156 1614.421875 C 1195.800781 1614.421875 1195.441406 1574.820312 1195.761719 1568.679688 C 1197.738281 1531.011719 1218.351562 1260.589844 1275.511719 1254.359375 C 1285.980469 1253.21875 1293.058594 1267.191406 1297.800781 1274.300781 C 1341.769531 1340.261719 1293.21875 1438.640625 1275.511719 1506.519531 C 1265.109375 1546.398438 1263.78125 1591.050781 1263.78125 1632.011719 C 1263.78125 1647.960938 1260.949219 1669.121094 1269.648438 1683.609375 C 1288.289062 1714.691406 1318.421875 1626.710938 1321.25 1621.460938 C 1336.921875 1592.359375 1406.410156 1471.390625 1442.050781 1479.539062 C 1494.210938 1491.46875 1368.71875 1745.078125 1377.550781 1771.578125 C 1378.480469 1774.359375 1385.039062 1778.160156 1388.101562 1775.101562 C 1421.488281 1741.710938 1453.648438 1710.640625 1499.519531 1695.339844 C 1502.980469 1694.191406 1510.910156 1691.960938 1512.421875 1696.519531 C 1522.101562 1725.550781 1488.5 1761.800781 1474.890625 1784.480469 C 1409.578125 1893.328125 1247.308594 1922.671875 1176.589844 1916.589844 "/>
</g>
</g>
<g clip-path="url(#clip-63)">
<g clip-path="url(#clip-64)">
<path fill-rule="evenodd" fill="rgb(97.65625%, 83.984375%, 58.789062%)" fill-opacity="1" d="M 3808.929688 2620.25 C 3816.210938 2618.898438 3823.710938 2618.199219 3831.378906 2618.199219 C 3896.960938 2618.199219 3950.199219 2669.488281 3950.199219 2732.660156 C 3950.199219 2795.828125 3896.960938 2847.121094 3831.378906 2847.121094 C 3823.679688 2847.121094 3816.140625 2846.410156 3808.851562 2845.058594 C 3807.101562 2878.53125 3779.410156 2905.128906 3745.5 2905.128906 C 3705.238281 2905.128906 3653.339844 2905.128906 3613.078125 2905.128906 C 3578.050781 2905.128906 3549.648438 2876.738281 3549.648438 2841.699219 C 3549.648438 2752.730469 3549.648438 2601.628906 3549.648438 2601.628906 L 3808.929688 2601.628906 Z M 3808.929688 2785.660156 L 3808.929688 2679.671875 C 3815.859375 2676.941406 3823.441406 2675.429688 3831.378906 2675.429688 C 3864.171875 2675.429688 3890.789062 2701.078125 3890.789062 2732.660156 C 3890.789062 2764.25 3864.171875 2789.890625 3831.378906 2789.890625 C 3823.441406 2789.890625 3815.859375 2788.390625 3808.929688 2785.660156 "/>
</g>
</g>
<g clip-path="url(#clip-65)">
<g clip-path="url(#clip-66)">
<path fill-rule="evenodd" fill="rgb(96.875%, 96.875%, 96.875%)" fill-opacity="1" d="M 3663.019531 2519.808594 C 3606.21875 2512.269531 3562.890625 2468.519531 3563.398438 2416.019531 C 3563.960938 2358.539062 3616.851562 2312.328125 3681.539062 2312.808594 L 3680.929688 2376.300781 C 3737.089844 2384 3780.300781 2426.578125 3780.800781 2478.269531 C 3781.359375 2535.738281 3728.898438 2582.730469 3663.640625 2583.210938 L 3663.019531 2519.808594 "/>
</g>
</g>
</svg>
